HIERARCHY
ROOT Hips
{
  OFFSET -102.467 93.6631 130.069
  CHANNELS 6 Xposition Yposition Zposition Zrotation Xrotation Yrotation
  JOINT LeftUpLeg
  {
    OFFSET 8.64259 1.95398 -2.38835
    CHANNELS 3 Zrotation Xrotation Yrotation
    JOINT LeftLeg
    {
      OFFSET 43.7702 0 0
      CHANNELS 3 Zrotation Xrotation Yrotation
      JOINT LeftFoot
      {
        OFFSET 40.6238 0 0
        CHANNELS 3 Zrotation Xrotation Yrotation
        JOINT LeftToeBase
        {
          OFFSET 12.7242 0 0
          CHANNELS 3 Zrotation Xrotation Yrotation
          End Site
          {
            OFFSET 0 0 0
          }
        }
      }
    }
  }
  JOINT RightUpLeg
  {
    OFFSET -8.2249 1.95398 -2.59336
    CHANNELS 3 Zrotation Xrotation Yrotation
    JOINT RightLeg
    {
      OFFSET 43.5653 0 0
      CHANNELS 3 Zrotation Xrotation Yrotation
      JOINT RightFoot
      {
        OFFSET 40.6238 0 0
        CHANNELS 3 Zrotation Xrotation Yrotation
        JOINT RightToeBase
        {
          OFFSET 12.7242 0 0
          CHANNELS 3 Zrotation Xrotation Yrotation
          End Site
          {
            OFFSET 0 0 0
          }
        }
      }
    }
  }
  JOINT Spine
  {
    OFFSET 0.165834 0.87714 6.61349
    CHANNELS 3 Zrotation Xrotation Yrotation
    JOINT Spine1
    {
      OFFSET 7.38963 1.71661e-005 0
      CHANNELS 3 Zrotation Xrotation Yrotation
      JOINT Spine2
      {
        OFFSET 11.9445 1.14441e-005 0
        CHANNELS 3 Zrotation Xrotation Yrotation
        JOINT Spine3
        {
          OFFSET 14.7254 4.19617e-005 0
          CHANNELS 3 Zrotation Xrotation Yrotation
          JOINT Spine4
          {
            OFFSET 10.9679 0 0
            CHANNELS 3 Zrotation Xrotation Yrotation
            JOINT RightShoulder
            {
              OFFSET 2.46616 -1.6653 3.69651
              CHANNELS 3 Zrotation Xrotation Yrotation
              JOINT RightArm
              {
                OFFSET 13.0012 0 0
                CHANNELS 3 Zrotation Xrotation Yrotation
                JOINT RightForeArm
                {
                  OFFSET 28.7848 1.52588e-005 0
                  CHANNELS 3 Zrotation Xrotation Yrotation
                  JOINT RightHand
                  {
                    OFFSET 26.5688 1.52588e-005 0
                    CHANNELS 3 Zrotation Xrotation Yrotation
                    End Site
                    {
                      OFFSET 0 0 0
                    }
                  }
                }
              }
            }
            JOINT LeftShoulder
            {
              OFFSET 2.38034 -1.29275 -3.7523
              CHANNELS 3 Zrotation Xrotation Yrotation
              JOINT LeftArm
              {
                OFFSET 16.3182 6.10351e-005 0
                CHANNELS 3 Zrotation Xrotation Yrotation
                JOINT LeftForeArm
                {
                  OFFSET 27.0901 0 0
                  CHANNELS 3 Zrotation Xrotation Yrotation
                  JOINT LeftHand
                  {
                    OFFSET 24.5451 1.52588e-005 0
                    CHANNELS 3 Zrotation Xrotation Yrotation
                    End Site
                    {
                      OFFSET 0 0 0
                    }
                  }
                }
              }
            }
            JOINT Neck
            {
              OFFSET 5.0226 -0.0266342 0
              CHANNELS 3 Zrotation Xrotation Yrotation
              JOINT Head
              {
                OFFSET 6.69363 2.86102e-005 0
                CHANNELS 3 Zrotation Xrotation Yrotation
                End Site
                {
                  OFFSET 0 0 0
                }
              }
            }
          }
        }
      }
    }
  }
}
MOTION
Frames:	12
Frame Time:	0.0416667
234.014 98.6525 -237.364 -105.6 -56.7587 -103.348 -175.36 -10.8356 88.4714 -24.7304 29.0682 3.88261 63.4655 8.35517 14.3266 49.4387 -1.21438 4.87741 176.225 16.2897 84.5375 -5.92713 9.64502 -0.884962 57.1032 11.1152 23.2371 32.2584 -0.260833 2.90861 -0.643935 7.88103 -89.9742 11.1134 -1.26972 0.174578 -0.556971 -1.26081 0.230284 -23.097 -1.2635 -0.215164 -3.08439 -1.26347 -0.21516 102.017 -54.8208 -82.3892 31.175 -4.74927 8.80441 -1.70638 -8.89431 -9.71022 -7.84649 -0.436516 1.37971 -86.0412 -51.5181 84.6475 -17.327 14.6766 -38.6909 6.25418 30.9887 -19.0877 3.18725 -0.234919 -7.34348 1.86811 -0.59868 -4.85781 -20.7484 -0.729474 6.07907 
226.806 97.3507 -230.866 -104.796 -57.4387 -101.328 -175.835 -11.7722 90.9831 -32.5991 28.4718 6.49083 61.9981 5.37446 9.43101 57.6151 -1.61445 5.74255 173.566 16.8071 85.7969 -12.1242 6.90328 2.50483 51.2312 10.0716 16.3542 26.3924 0.843503 1.89413 -0.786395 7.77618 -90.3492 11.3205 -1.72752 -0.523335 -0.349339 -1.74888 -0.446785 -22.891 -1.49036 -1.01842 -2.87841 -1.49036 -1.01842 102.124 -54.6334 -82.2315 30.7233 -3.80257 8.25429 -2.26015 -8.84991 -10.2795 -6.02465 -0.354325 1.82741 -86.1015 -52.0387 84.6321 -19.4442 15.4958 -34.6932 7.37711 31.2321 -20.6095 4.16046 -0.264762 -7.47028 2.57937 0.695946 -3.23115 -20.0146 0.402894 5.75457 
219.369 97.2017 -224.093 -104.5 -57.1777 -98.431 -177.085 -8.28102 96.4782 -42.6203 22.6039 7.15269 49.7502 -3.55176 1.25572 55.8215 -3.69093 -2.37882 173.31 19.0703 88.9305 -26.9214 -0.916285 3.91394 56.3388 7.84222 7.953 20.7833 2.26326 6.17561 -0.823397 7.63966 -90.8493 11.5793 -2.03554 -1.48017 -0.0908437 -2.09871 -1.38915 -22.627 -1.49667 -2.02343 -2.61433 -1.49667 -2.02344 102.11 -54.4006 -82.2523 29.2406 -4.60968 5.2541 -2.194 -9.67626 -10.532 -7.47201 -0.554025 3.52731 -86.0603 -52.4666 84.752 -23.8275 15.0365 -27.4248 4.39678 36.0104 -14.7972 -0.542659 -0.159924 -6.84268 2.9401 1.08386 -4.1578 -20.9762 0.547452 8.1185 
212.816 97.2875 -218.325 -104.944 -56.2658 -97.3799 -178.782 3.44852 91.3437 -59.4418 10.1194 5.66649 45.7146 -3.78125 5.3141 51.145 -3.40145 -2.78153 173.033 16.1616 91.1663 -33.7913 -0.456653 4.6719 63.5351 5.48536 6.87236 21.4348 2.60328 9.62688 -0.541732 7.75158 -91.1373 11.3512 -1.60809 -2.10471 -0.320312 -1.69912 -2.03193 -22.8451 -0.901409 -2.49049 -2.83244 -0.901396 -2.49049 102.014 -54.0093 -82.3947 27.3211 -5.85363 -0.279797 -1.55451 -6.16885 -12.5073 -10.0836 -0.588083 1.77967 -86.8074 -53.3984 83.7969 -26.5593 12.5003 -23.4374 -2.12822 41.0176 -3.36368 -5.96319 -0.021511 -6.54852 4.01613 0.457598 -5.3508 -20.5309 0.314189 7.41004 
206.571 98.0133 -212.936 -101.349 -52.5781 -94.5204 -177.906 15.4729 92.204 -63.3222 6.04827 3.76653 52.5983 1.30704 7.78434 50.642 -2.41472 0.667768 174.137 12.3035 92.6543 -33.835 1.27936 3.50538 67.9131 5.53619 10.5042 23.0148 2.27186 8.56522 0.0213431 7.76075 -91.0617 11.3436 -0.452392 -2.06905 -0.328871 -0.543005 -2.04715 -22.8508 0.190196 -2.10934 -2.83818 0.190183 -2.10936 101.168 -53.4217 -83.6621 25.4683 -8.85955 -8.23577 -0.883111 -5.14126 -15.2622 -14.4989 -0.911139 2.16026 -86.5072 -53.4308 84.2369 -27.1917 9.91137 -19.5112 -4.26195 42.4813 -0.0086484 -4.27518 -0.0965652 -4.0062 4.29157 -0.198011 -5.46663 -20.5452 -0.0210106 5.47389 
200.779 98.8721 -207.118 -101.796 -49.23 -96.4613 -177.405 18.9038 88.6068 -47.6508 8.19674 2.01884 54.8569 2.95259 8.55879 54.9597 -0.466779 8.83324 173.997 5.68312 91.374 -32.7168 -0.198421 1.91589 72.5744 4.36149 12.2015 19.0819 3.07122 11.6774 0.292209 7.97823 -90.7967 10.9158 0.213254 -1.60615 -0.756137 0.142361 -1.61398 -23.2845 0.686065 -1.46786 -3.27186 0.686048 -1.46787 100.077 -52.3815 -85.3328 22.7962 -11.586 -16.3349 -1.40059 -5.05354 -17.6536 -11.0606 -0.536522 0.531527 -86.0813 -54.0044 84.9343 -26.5523 8.15772 -13.6772 -3.93234 41.2116 0.0232447 -3.27798 -0.0731142 -5.76816 2.36071 0.276527 -4.80906 -19.0576 0.22891 6.18647 
194.994 98.9868 -202.069 -100.422 -47.4216 -95.5397 -177.765 17.6093 88.4699 -18.2573 8.98901 0.843676 51.7558 0.377152 8.32466 44.6858 -0.355693 7.23958 174.444 -0.159797 90.0265 -29.7328 1.10382 0.970135 72.1202 5.72497 15.8137 26.2057 1.61482 7.07747 0.530522 7.94706 -90.7194 10.9822 0.723115 -1.50019 -0.689446 0.656372 -1.53055 -23.2213 1.14049 -1.21357 -3.2086 1.1405 -1.21356 100.161 -52.0834 -85.217 19.2859 -14.2589 -21.8428 -1.99473 -4.89601 -21.482 -11.3326 -0.391197 -1.22188 -86.3108 -54.3407 84.6492 -26.3574 7.85029 -7.27858 -3.69522 37.0027 -0.70923 -4.82188 -0.05197 -6.20829 2.06207 0.378931 -3.88607 -19.4299 0.179343 5.98165 
189.189 98.2847 -196.003 -99.5954 -45.1401 -93.6721 -177.705 18.2799 89.5784 -6.55269 8.43793 1.17055 57.2793 -1.15595 0.758749 39.4946 0.104783 8.42619 174.787 -4.59108 92.1069 -29.1858 -2.03387 0.328042 69.7952 4.60481 14.8991 38.7446 -0.118357 8.98388 0.728763 7.94226 -90.7146 10.9944 1.1198 -1.52862 -0.676993 1.05147 -1.57643 -23.2116 1.52743 -1.12145 -3.19897 1.52744 -1.12145 99.1846 -51.6991 -86.7235 18.6616 -15.534 -23.2962 -3.99556 -6.50574 -25.7317 -10.7031 -0.41914 -0.644269 -85.4339 -54.6924 85.9554 -26.3883 7.05997 -4.04061 -3.61882 35.1207 -0.282756 -5.28361 -0.0394323 -6.31253 2.57715 0.683346 -3.77267 -19.4594 0.451635 6.17946 
182.505 97.2295 -188.791 -98.8179 -44.1476 -94.081 -178.574 17.2619 88.2155 -8.51657 13.5592 1.21717 46.4472 -5.23541 7.06929 40.9426 0.280798 9.82048 174.17 -7.59646 89.5015 -32.3061 -6.918 -0.77247 64.1232 5.99665 15.8736 50.0555 -1.61213 9.9474 0.823147 7.94359 -90.4493 10.993 1.43065 -1.0304 -0.677632 1.38391 -1.09238 -23.2179 1.67416 -0.552727 -3.20527 1.67416 -0.552727 99.5993 -51.8026 -86.0852 19.762 -16.1989 -22.1202 -4.71909 -8.14573 -25.1739 -9.7753 -0.296163 -1.73567 -85.5703 -56.3017 85.9597 -24.3532 6.64224 -5.957 -3.86577 35.2281 -0.00706095 -5.57432 -0.0553501 -5.62923 4.21562 0.0849969 -3.21898 -20.6436 -0.0596162 4.8757 
176.174 96.3878 -181.851 -99.4721 -45.0992 -96.5736 -177.688 19.6021 85.8993 -24.4332 15.0538 0.331583 52.5585 -2.65977 10.2457 39.1593 -0.457999 4.37154 171.933 -5.30413 84.5233 -41.7822 -6.04271 -1.15358 49.5829 11.3689 20.893 40.83 4.38838 25.9123 0.629786 7.91977 -89.9614 11.0347 1.27165 -0.0444456 -0.635633 1.26846 -0.100381 -23.1755 1.22621 0.339856 -3.16282 1.22619 0.339851 99.4245 -52.5298 -86.3154 24.0895 -17.0379 -14.4604 -3.24662 -7.45504 -23.816 -14.3358 -0.672081 0.267764 -86.4914 -54.4259 84.4025 -25.3485 4.53642 -10.3377 -2.52837 38.8116 -0.00652093 -5.54512 -0.0486924 -5.8833 3.61563 0.0121449 -4.84366 -20.1134 -0.000741483 5.95826 
170.588 96.6627 -175.38 -102.152 -46.4648 -99.8654 -177.142 15.0687 83.8752 -30.9096 16.1447 0.21997 59.108 2.716 16.3777 35.4352 -1.12619 -2.60219 171.342 5.02726 83.2883 -58.7042 -12.5116 -1.31672 44.9507 11.1938 14.254 32.4938 1.3146 12.1285 0.258858 8.08882 -89.7384 10.6938 0.635967 0.459632 -0.977072 0.655605 0.43119 -23.5122 0.468442 0.629518 -3.4996 0.468428 0.629509 100.018 -52.8072 -85.4076 27.8789 -14.5198 -10.1768 -3.87852 -12.6876 -17.9451 -7.98173 -0.460709 1.40239 -86.7865 -54.4959 83.9881 -23.6729 5.8421 -17.5204 -2.91839 38.7473 0.0646418 -4.07615 -0.0864648 -4.97628 4.00864 0.645297 -4.03883 -21.0391 0.393087 6.36469 
164.841 97.6651 -169.076 -103.759 -48.9665 -99.6264 -176.453 8.7914 86.1104 -31.5574 18.8889 1.1201 63.0948 5.76441 16.4442 37.7878 -1.17047 -0.839332 172.374 14.8484 86.3151 -62.2703 -10.8263 -0.834806 49.6018 9.46388 15.2093 28.814 1.90189 11.8324 -0.113174 8.11305 -89.969 10.6492 -0.211042 0.082439 -1.02175 -0.207188 0.0916349 -23.5571 -0.226042 0.015211 -3.54443 -0.22606 0.0151917 100.252 -53.4169 -85.0341 29.5878 -11.5043 -5.2637 -2.56136 -12.6171 -13.6655 -8.23042 -0.488913 1.80777 -86.663 -54.0526 84.101 -22.1256 7.91307 -24.3756 -2.92195 38.0292 -0.455365 -1.17073 -0.0898034 -4.55492 2.42717 1.23771 -2.9415 -21.0673 0.829095 5.83566 
